<?xml version="1.0" standalone="no"?>
<!DOCTYPE svg PUBLIC "-//W3C//DTD SVG 20010904//EN"
 "http://www.w3.org/TR/2001/REC-SVG-20010904/DTD/svg10.dtd">
<svg version="1.0" xmlns="http://www.w3.org/2000/svg"
 width="700.000000pt" height="700.000000pt" viewBox="0 0 700.000000 700.000000"
 preserveAspectRatio="xMidYMid meet">
<metadata>
Created by potrace 1.11, written by Peter Selinger 2001-2013
</metadata>
<g transform="translate(0.000000,700.000000) scale(0.100000,-0.100000)"
fill="#000000" stroke="none">
<path d="M5089 6504 c-41 -6 -96 -14 -124 -18 -27 -3 -61 -8 -75 -10 -14 -3
-41 -7 -60 -10 -71 -11 -320 -56 -475 -86 -88 -18 -168 -34 -178 -36 -10 -2
-26 -5 -35 -8 -9 -3 -28 -7 -42 -10 -14 -2 -45 -9 -70 -16 -25 -7 -57 -14 -73
-16 -15 -2 -31 -5 -36 -8 -4 -3 -23 -8 -42 -11 -56 -10 -401 -100 -610 -159
-284 -80 -504 -148 -809 -249 -128 -43 -745 -261 -780 -276 -14 -5 -90 -35
-170 -66 -80 -31 -158 -62 -175 -70 -16 -7 -64 -27 -105 -45 -191 -82 -371
-183 -428 -240 -38 -37 -142 -247 -172 -345 -22 -74 -29 -180 -12 -197 15 -15
59 3 207 86 322 183 696 342 1515 649 458 172 482 180 855 307 484 164 860
279 853 260 -2 -4 -43 -41 -93 -80 -284 -226 -483 -411 -555 -514 -86 -126
-133 -295 -133 -486 -1 -66 12 -265 17 -281 3 -8 7 -36 10 -64 14 -148 120
-540 210 -779 14 -37 26 -72 26 -78 0 -8 -34 -25 -175 -88 -27 -13 -79 -36
-115 -52 -36 -16 -81 -37 -100 -45 -143 -64 -535 -256 -690 -339 -98 -52 -150
-80 -275 -149 -88 -48 -299 -179 -316 -195 -63 -61 -114 -173 -160 -350 -32
-125 -31 -165 4 -174 49 -12 83 3 247 113 426 286 987 597 1500 833 47 22 112
52 144 69 45 22 62 26 68 16 9 -15 84 -215 142 -379 47 -135 146 -466 146
-490 0 -8 -53 -60 -117 -116 -459 -394 -710 -745 -783 -1095 -19 -91 -22 -288
-6 -359 31 -135 117 -216 241 -225 306 -24 730 344 983 852 53 107 110 267
128 358 2 10 5 26 8 35 6 20 16 82 22 132 5 46 6 329 0 355 -5 28 -14 91 -22
155 -4 30 -8 64 -9 76 -2 17 20 35 119 97 217 135 327 193 461 242 57 21 91
39 93 49 5 25 -82 21 -174 -10 -95 -30 -304 -132 -430 -207 l-91 -55 -13 67
c-17 92 -62 265 -122 471 -28 96 -58 199 -66 228 -8 28 -13 54 -11 56 9 7 541
217 674 266 77 28 149 55 160 59 11 5 110 42 220 81 110 40 206 77 214 84 35
27 187 289 206 353 9 34 -18 43 -84 27 -31 -7 -153 -47 -271 -89 -118 -42
-247 -87 -285 -100 -39 -13 -81 -28 -95 -34 -14 -5 -65 -24 -115 -41 -49 -17
-99 -35 -110 -40 -11 -5 -54 -21 -95 -36 -41 -15 -127 -47 -190 -71 -63 -25
-158 -61 -210 -80 -52 -20 -101 -40 -108 -46 -8 -6 -16 -6 -21 -1 -8 9 -142
409 -157 469 -4 17 -9 35 -10 40 -60 192 -118 425 -131 525 -10 67 -10 266 -1
335 10 74 36 180 55 223 9 20 25 57 36 82 27 60 87 148 134 196 85 87 274 205
419 260 86 33 132 46 317 89 175 41 231 63 276 113 19 20 79 84 133 142 103
108 132 148 120 167 -11 17 -72 20 -153 7z m-1089 -4316 c40 -249 49 -348 45
-533 -3 -207 -19 -285 -84 -419 -41 -85 -135 -212 -192 -260 -82 -70 -190 -89
-254 -44 -91 62 -122 271 -74 508 37 185 165 427 324 610 54 62 208 220 215
220 3 0 12 -37 20 -82z"/>
</g>
</svg>
