<?xml version="1.0" encoding="iso-8859-1"?>
<!-- Generator: Adobe Illustrator 16.0.0, SVG Export Plug-In . SVG Version: 6.00 Build 0)  -->
<!DOCTYPE svg PUBLIC "-//W3C//DTD SVG 1.1//EN" "http://www.w3.org/Graphics/SVG/1.1/DTD/svg11.dtd">
<svg version="1.1" id="Capa_1" xmlns="http://www.w3.org/2000/svg" xmlns:xlink="http://www.w3.org/1999/xlink" x="0px" y="0px"
	 width="577.574px" height="577.574px" viewBox="0 0 577.574 577.574" style="enable-background:new 0 0 577.574 577.574;"
	 xml:space="preserve">
<g style="fill: white;">
	<g id="Layer_1_82_">
		<g>
			<path d="M567.375,476.85L405.449,312.375c-6.375,3.824-11.475,6.375-19.125,8.924c-7.648,2.551-16.574,3.826-25.5,3.826
				c-10.199,0-20.398-2.551-29.324-5.102l-52.275,54.826c6.375,5.1,15.3,7.65,24.224,8.924c11.477,0,22.951-3.824,31.875-12.75
				l1.275-1.273l161.926,172.125c6.375,6.375,15.299,10.199,24.225,10.199s17.85-3.824,24.225-10.199l20.4-20.4
				c6.375-6.375,10.199-15.301,10.199-24.225C577.574,488.324,573.75,481.949,567.375,476.85z"/>
			<path d="M179.775,261.375l48.45-45.9c-2.55-8.925-3.825-17.85-3.825-26.775c0-15.3,5.1-30.6,12.75-43.35l-102-105.825
				c-15.3-15.3-42.075-15.3-57.375,0C51,66.299,49.725,109.649,73.95,138.974L179.775,261.375z"/>
			<path d="M332.775,276.674c7.65,7.65,17.85,11.475,28.049,11.475c10.201,0,20.4-3.825,28.051-11.475L517.65,147.899
				c5.1-5.1,5.1-12.75,0-17.85l-2.551-2.55c-2.549-2.55-5.1-3.825-8.924-3.825c-3.826,0-6.375,1.275-8.926,3.825l-85.426,85.425
				c-3.824,3.825-8.924,5.1-14.023,5.1c-5.102,0-10.201-2.55-14.025-5.1l-2.551-2.55c-7.65-7.65-7.65-19.125,0-26.775l85.426-85.425
				c5.1-5.1,5.1-12.75,0-17.85l-2.551-2.55c-2.549-2.55-5.1-3.825-8.924-3.825c-3.826,0-6.375,1.275-8.926,3.825l-85.426,85.425
				c-3.824,3.825-8.924,5.1-14.023,5.1c-5.102,0-10.201-2.55-14.025-5.1l-2.551-2.55c-3.824-3.825-5.1-8.925-5.1-14.025
				c0-5.1,2.551-10.2,5.1-14.025l85.426-85.425c2.549-2.55,3.824-5.1,3.824-8.925c0-3.825-1.275-6.375-3.824-8.925l-2.551-2.55
				c-2.551-2.55-5.1-3.825-8.926-3.825c-3.824,0,0.002,5.1-2.549,7.65L272.85,159.375c-7.65,7.65-11.475,17.85-11.475,28.05
				s3.825,21.675,11.475,28.05l3.825,3.825L10.2,471.75C3.825,478.125,0,487.049,0,495.975c0,8.924,3.825,17.85,10.2,24.225
				l19.125,21.676c6.375,6.375,15.3,12.75,24.225,12.75l0,0c8.925,0,17.85-6.375,24.225-12.75l251.174-269.026L332.775,276.674z"/>
		</g>
	</g>
</g>
<g>
</g>
<g>
</g>
<g>
</g>
<g>
</g>
<g>
</g>
<g>
</g>
<g>
</g>
<g>
</g>
<g>
</g>
<g>
</g>
<g>
</g>
<g>
</g>
<g>
</g>
<g>
</g>
<g>
</g>
</svg>
