<?xml version="1.0" encoding="iso-8859-1"?>
<!-- Generator: Adobe Illustrator 18.0.0, SVG Export Plug-In . SVG Version: 6.00 Build 0)  -->
<!DOCTYPE svg PUBLIC "-//W3C//DTD SVG 1.1//EN" "http://www.w3.org/Graphics/SVG/1.1/DTD/svg11.dtd">
<svg version="1.1" id="Capa_1" xmlns="http://www.w3.org/2000/svg" xmlns:xlink="http://www.w3.org/1999/xlink" x="0px" y="0px"
	 viewBox="0 0 219.152 219.152" style="enable-background:new 0 0 219.152 219.152;" xml:space="preserve">
<g style="fill: white;">
	<path d="M211.652,0H7.501c-4.143,0-7.5,3.358-7.5,7.5v204.152c0,4.143,3.357,7.5,7.5,7.5h204.151c4.143,0,7.5-3.357,7.5-7.5V7.5
		C219.152,3.358,215.794,0,211.652,0z M204.152,204.152H15V15h189.151V204.152z"/>
	<path d="M58.539,66.038h102.075c4.143,0,7.5-3.357,7.5-7.5s-3.357-7.5-7.5-7.5H58.539c-4.143,0-7.5,3.357-7.5,7.5
		S54.396,66.038,58.539,66.038z"/>
	<path d="M58.539,117.076h102.075c4.143,0,7.5-3.357,7.5-7.5s-3.357-7.5-7.5-7.5H58.539c-4.143,0-7.5,3.357-7.5,7.5
		S54.396,117.076,58.539,117.076z"/>
	<path d="M58.539,168.114h102.075c4.143,0,7.5-3.357,7.5-7.5c0-4.143-3.357-7.5-7.5-7.5H58.539c-4.143,0-7.5,3.357-7.5,7.5
		C51.039,164.757,54.396,168.114,58.539,168.114z"/>
</g>
<g>
</g>
<g>
</g>
<g>
</g>
<g>
</g>
<g>
</g>
<g>
</g>
<g>
</g>
<g>
</g>
<g>
</g>
<g>
</g>
<g>
</g>
<g>
</g>
<g>
</g>
<g>
</g>
<g>
</g>
</svg>
